<svg xmlns="http://www.w3.org/2000/svg" width="1024" height="1024" viewBox="0 0 1024 1024">
  <defs>
    <linearGradient id="shell" x1="0" y1="0" x2="1" y2="1">
      <stop offset="0" stop-color="#3988f4"/>
      <stop offset="1" stop-color="#1458bd"/>
    </linearGradient>
    <filter id="shadow" x="-20%" y="-20%" width="140%" height="140%">
      <feDropShadow dx="0" dy="26" stdDeviation="34" flood-color="#062b62" flood-opacity=".32"/>
    </filter>
  </defs>
  <rect width="1024" height="1024" rx="228" fill="url(#shell)"/>
  <g filter="url(#shadow)">
    <path d="M150 289c0-42 34-76 76-76h224l72 82h276c42 0 76 34 76 76v413c0 42-34 76-76 76H226c-42 0-76-34-76-76z" fill="#f8fbff"/>
    <rect x="198" y="359" width="628" height="449" rx="42" fill="#dceaff"/>
    <path d="M512 359v449M198 584h628" stroke="#2875dd" stroke-width="26"/>
    <rect x="538" y="385" width="262" height="173" rx="24" fill="#ffffff"/>
    <rect x="224" y="610" width="262" height="172" rx="24" fill="#ffffff"/>
    <circle cx="682" cy="696" r="66" fill="#eba938"/>
    <path d="M651 696h62M682 665v62" stroke="#fff" stroke-width="24" stroke-linecap="round"/>
  </g>
</svg>
